<?xml version="1.0" encoding="iso-8859-1"?>
<!-- Generator: Adobe Illustrator 19.0.0, SVG Export Plug-In . SVG Version: 6.00 Build 0)  -->
<svg version="1.1" id="Capa_1" xmlns="http://www.w3.org/2000/svg" xmlns:xlink="http://www.w3.org/1999/xlink" x="0px" y="0px"
	 viewBox="0 0 512.001 512.001" style="enable-background:new 0 0 512.001 512.001;" xml:space="preserve">
<path style="fill:#DBD9E2;" d="M312,387.516v72h3.026c34.53,0,67.385,17.246,93.358,40c8.635,7.565,20.007,8.201,32.436,7.993
	c26.319-0.44,47.18-22.461,47.18-48.783v-63.21c0-4.418-3.582-8-8-8L312,387.516L312,387.516z"/>
<g>
	<path style="fill:#EDECF1;" d="M392,459.516V15.826c0-5.789-5.959-9.662-11.249-7.31l-60.751,27L259.578,5.305
		c-2.252-1.126-4.903-1.126-7.155,0L192,35.516L131.578,5.305c-2.252-1.126-4.903-1.126-7.155,0L64,35.516L11.578,9.305
		C6.258,6.645,0,10.513,0,16.46v443.056c0,26.51,21.49,48,48,48h312h32h48C413.49,507.516,392,486.025,392,459.516z"/>
	<path style="fill:#EDECF1;" d="M392,459.516V51.849H0v407.667c0,26.51,21.49,48,48,48h312h32h48
		C413.49,507.516,392,486.025,392,459.516z"/>
</g>
<path style="fill:#DBD9E2;" d="M24,459.516V16.46c0-0.312,0.027-0.614,0.06-0.914L11.578,9.305C6.258,6.645,0,10.513,0,16.46
	v443.056c0,26.51,21.49,48,48,48h24C45.49,507.516,24,486.025,24,459.516z"/>
<path style="fill:#645BA5;" d="M392,15.826c0-5.789-5.959-9.662-11.249-7.31l-60.751,27L259.578,5.305
	c-2.252-1.126-4.903-1.126-7.155,0L192,35.516L131.578,5.305c-2.252-1.126-4.903-1.126-7.155,0L64,35.516L11.578,9.305
	C6.258,6.645,0,10.513,0,16.46v35.389h392V15.826z"/>
<g style="opacity:0.5;">
	<path style="opacity:0.5;fill:#494170;enable-background:new    ;" d="M11.578,9.305C6.258,6.645,0,10.513,0,16.46v35.056h24V16.46
		c0-0.312,0.027-0.614,0.06-0.914L11.578,9.305z"/>
</g>
<path style="fill:#F09C48;" d="M192,184.919v-21.403c0-30.878-25.122-56-56-56H88c-13.233,0-24,10.767-24,24v144
	c0,13.233,10.767,24,24,24h80c30.878,0,56-25.122,56-56v-8C224,213.755,211.362,194.115,192,184.919z M112,179.516v-24h24
	c4.411,0,8,3.589,8,8v16H112z M168,251.516h-56v-24h56c4.411,0,8,3.589,8,8v8C176,247.927,172.411,251.516,168,251.516z"/>
<path style="fill:#EDBC53;" d="M88,291.516c-8.822,0-16-7.178-16-16v-144c0-8.822,7.178-16,16-16h48c26.467,0,48,21.533,48,48v26.46
	l4.568,2.169c16.664,7.916,27.432,24.94,27.432,43.371v8c0,26.467-21.533,48-48,48H88z M104,259.516h64c8.822,0,16-7.178,16-16v-8
	c0-8.822-7.178-16-16-16h-64V259.516z M104,187.516h48v-24c0-8.822-7.178-16-16-16h-32V187.516z"/>
<g>
	<path style="fill:#645BA5;" d="M176,427.516H72c-4.418,0-8-3.582-8-8s3.582-8,8-8h104c4.418,0,8,3.582,8,8
		S180.418,427.516,176,427.516z"/>
	<path style="fill:#645BA5;" d="M104,387.516H72c-4.418,0-8-3.582-8-8s3.582-8,8-8h32c4.418,0,8,3.582,8,8
		S108.418,387.516,104,387.516z"/>
	<path style="fill:#645BA5;" d="M192,387.516h-56c-4.418,0-8-3.582-8-8s3.582-8,8-8h56c4.418,0,8,3.582,8,8
		S196.418,387.516,192,387.516z"/>
	<path style="fill:#645BA5;" d="M144,347.516H72c-4.418,0-8-3.582-8-8s3.582-8,8-8h72c4.418,0,8,3.582,8,8
		S148.418,347.516,144,347.516z"/>
	<path style="fill:#645BA5;" d="M192,347.516h-16c-4.418,0-8-3.582-8-8s3.582-8,8-8h16c4.418,0,8,3.582,8,8
		S196.418,347.516,192,347.516z"/>
</g>
<path style="fill:#494170;" d="M199.5,427.516c-6.995,0-10.582-8.732-5.657-13.657l16.971-16.971c3.124-3.124,8.189-3.124,11.313,0
	c3.125,3.124,3.125,8.189,0,11.313l-16.971,16.971C203.595,426.734,201.548,427.516,199.5,427.516z"/>
<path style="fill:#DBD9E2;" d="M233.441,317.693c-2.143-2.143-5.312-2.891-8.187-1.933s-4.961,3.458-5.39,6.458l-11.313,79.196
	l9.051,9.051l79.196-11.313c3-0.428,5.5-2.515,6.458-5.39s0.21-6.044-1.933-8.187L233.441,317.693z"/>
<path style="fill:#C8C6D4;" d="M293.517,377.768l-81.141,27.47l5.227,5.227l79.196-11.313c3-0.428,5.5-2.515,6.458-5.39
	s0.21-6.044-1.933-8.187L293.517,377.768z"/>
<path style="fill:#EDBC53;" d="M471.029,215.869l-67.882-67.882c-3.124-3.124-8.189-3.124-11.313,0L222.128,317.693
	c-3.125,3.124-3.125,8.189,0,11.313l67.882,67.882c1.562,1.562,3.609,2.343,5.657,2.343s4.095-0.781,5.657-2.343L471.03,227.182
	C474.154,224.059,474.154,218.993,471.029,215.869z"/>
<path style="fill:#F09C48;" d="M471.029,215.869l-33.941-33.941c-1.5-1.5-3.535-2.343-5.657-2.343s-4.157,0.843-5.657,2.343
	L256.069,351.633c-1.5,1.5-2.343,3.535-2.343,5.657s0.843,4.157,2.343,5.657l33.941,33.941c1.562,1.562,3.609,2.343,5.657,2.343
	s4.095-0.781,5.657-2.343L471.03,227.182C474.154,224.059,474.154,218.993,471.029,215.869z"/>
<path style="fill:#DBD9E2;" d="M459.716,114.046L459.716,114.046c-9.358-9.357-24.583-9.357-33.941,0l-33.941,33.941l79.196,79.196
	l33.941-33.941c4.533-4.533,7.03-10.56,7.03-16.971s-2.497-12.438-7.03-16.971L459.716,114.046z"/>
<path style="fill:#E57D37;" d="M457.338,202.178L276.319,383.197l13.691,13.691c1.562,1.562,3.609,2.343,5.657,2.343
	s4.095-0.781,5.657-2.343L471.03,227.182c3.125-3.124,3.125-8.189,0-11.313L457.338,202.178z"/>
<path style="fill:#C8C6D4;" d="M502.593,156.923l-50.912,50.912l19.348,19.348l33.941-33.941c4.533-4.533,7.03-10.56,7.03-16.971
	s-2.497-12.438-7.03-16.971L502.593,156.923z"/>
<rect x="383.915" y="167.101" transform="matrix(0.7071 0.7071 -0.7071 0.7071 255.4915 -258.6088)" style="fill:#6A56A8;" width="111.999" height="24"/>
<rect x="456.163" y="197.028" transform="matrix(0.7071 0.7071 -0.7071 0.7071 285.4187 -271.0068)" style="opacity:0.5;fill:#494170;enable-background:new    ;" width="27.362" height="24"/>
<g>
</g>
<g>
</g>
<g>
</g>
<g>
</g>
<g>
</g>
<g>
</g>
<g>
</g>
<g>
</g>
<g>
</g>
<g>
</g>
<g>
</g>
<g>
</g>
<g>
</g>
<g>
</g>
<g>
</g>
</svg>
