<?xml version="1.0" encoding="iso-8859-1"?>
<!-- Generator: Adobe Illustrator 19.0.0, SVG Export Plug-In . SVG Version: 6.00 Build 0)  -->
<svg version="1.1" id="Capa_1" xmlns="http://www.w3.org/2000/svg" xmlns:xlink="http://www.w3.org/1999/xlink" x="0px" y="0px"
	 viewBox="0 0 512 512" style="enable-background:new 0 0 512 512;" xml:space="preserve">
<path style="fill:#D8D7DD;" d="M319.907,502.784l-16-104c-0.6-3.903-3.959-6.784-7.907-6.784h-80c-3.948,0-7.307,2.881-7.907,6.784
	l-16,104c-0.354,2.307,0.315,4.654,1.836,6.425c1.52,1.771,3.737,2.791,6.071,2.791h112c2.334,0,4.552-1.02,6.071-2.791
	C319.592,507.438,320.262,505.09,319.907,502.784z"/>
<path style="fill:#C4C4CD;" d="M303.907,398.784c-0.6-3.903-3.959-6.784-7.907-6.784h-80c-3.948,0-7.307,2.881-7.907,6.784
	L204.29,423.5h103.42L303.907,398.784z"/>
<path style="fill:#89889A;" d="M336,512H176c-4.418,0-8-3.582-8-8s3.582-8,8-8h160c4.418,0,8,3.582,8,8S340.418,512,336,512z"/>
<path style="fill:#EEEBEA;" d="M504,0H8C3.582,0,0,3.582,0,8v392c0,4.418,3.582,8,8,8h496c4.418,0,8-3.582,8-8V8
	C512,3.582,508.418,0,504,0z"/>
<path style="fill:#89889A;" d="M504,0H8C3.582,0,0,3.582,0,8v336h512V8C512,3.582,508.418,0,504,0z"/>
<path style="fill:#EE5375;" d="M256,48c-61.757,0-112,50.243-112,112s50.243,112,112,112s112-50.243,112-112S317.757,48,256,48z"/>
<path style="fill:#F6F5F5;" d="M316.588,153.446l-80-56C231.382,93.802,224,97.658,224,104v112c0,6.333,7.379,10.202,12.588,6.554
	l80-56C321.061,163.423,321.061,156.577,316.588,153.446z"/>
<g>
	<circle style="fill:#D8D7DD;" cx="256" cy="295.5" r="7.5"/>
	<circle style="fill:#D8D7DD;" cx="295.5" cy="295.5" r="7.5"/>
	<circle style="fill:#D8D7DD;" cx="216.5" cy="295.5" r="7.5"/>
</g>
<g>
</g>
<g>
</g>
<g>
</g>
<g>
</g>
<g>
</g>
<g>
</g>
<g>
</g>
<g>
</g>
<g>
</g>
<g>
</g>
<g>
</g>
<g>
</g>
<g>
</g>
<g>
</g>
<g>
</g>
</svg>
